<?xml version="1.0" encoding="UTF-8" standalone="no"?>
<!DOCTYPE svg PUBLIC "-//W3C//DTD SVG 1.1//EN"
 "http://www.w3.org/Graphics/SVG/1.1/DTD/svg11.dtd">
<!-- Generated by graphviz version 2.38.0 (20140413.2041)
 -->
<!-- Title: demo.c Pages: 1 -->
<svg width="558pt" height="84pt"
 viewBox="0.00 0.00 557.50 84.00" xmlns="http://www.w3.org/2000/svg" xmlns:xlink="http://www.w3.org/1999/xlink">
<g id="graph0" class="graph" transform="scale(1 1) rotate(0) translate(4 80)">
<title>demo.c</title>
<polygon fill="white" stroke="none" points="-4,4 -4,-80 553.5,-80 553.5,4 -4,4"/>
<!-- Node1 -->
<g id="node1" class="node"><title>Node1</title>
<polygon fill="#bfbfbf" stroke="black" points="269,-56.5 269,-75.5 319,-75.5 319,-56.5 269,-56.5"/>
<text text-anchor="middle" x="294" y="-63.5" font-family="Helvetica,sans-Serif" font-size="10.00">demo.c</text>
</g>
<!-- Node2 -->
<g id="node2" class="node"><title>Node2</title>
<polygon fill="white" stroke="#bfbfbf" points="0,-0.5 0,-19.5 84,-19.5 84,-0.5 0,-0.5"/>
<text text-anchor="middle" x="42" y="-7.5" font-family="Helvetica,sans-Serif" font-size="10.00">medians_1D.h</text>
</g>
<!-- Node1&#45;&gt;Node2 -->
<g id="edge1" class="edge"><title>Node1&#45;&gt;Node2</title>
<path fill="none" stroke="midnightblue" d="M268.916,-59.6249C227.748,-50.8031 145.1,-33.0928 91.7268,-21.6558"/>
<polygon fill="midnightblue" stroke="midnightblue" points="92.3025,-18.1997 81.7911,-19.5267 90.8357,-25.0443 92.3025,-18.1997"/>
</g>
<!-- Node3 -->
<g id="node3" class="node"><title>Node3</title>
<polygon fill="white" stroke="#bfbfbf" points="102.5,-0.5 102.5,-19.5 149.5,-19.5 149.5,-0.5 102.5,-0.5"/>
<text text-anchor="middle" x="126" y="-7.5" font-family="Helvetica,sans-Serif" font-size="10.00">stdio.h</text>
</g>
<!-- Node1&#45;&gt;Node3 -->
<g id="edge2" class="edge"><title>Node1&#45;&gt;Node3</title>
<path fill="none" stroke="midnightblue" d="M268.849,-56.9157C239.775,-47.5704 191.798,-32.1495 159.561,-21.7876"/>
<polygon fill="midnightblue" stroke="midnightblue" points="160.283,-18.3433 149.692,-18.6152 158.141,-25.0075 160.283,-18.3433"/>
</g>
<!-- Node4 -->
<g id="node4" class="node"><title>Node4</title>
<polygon fill="white" stroke="#bfbfbf" points="167.5,-0.5 167.5,-19.5 216.5,-19.5 216.5,-0.5 167.5,-0.5"/>
<text text-anchor="middle" x="192" y="-7.5" font-family="Helvetica,sans-Serif" font-size="10.00">stdlib.h</text>
</g>
<!-- Node1&#45;&gt;Node4 -->
<g id="edge3" class="edge"><title>Node1&#45;&gt;Node4</title>
<path fill="none" stroke="midnightblue" d="M277.612,-56.324C261.329,-47.7034 236.133,-34.3643 217.284,-24.3855"/>
<polygon fill="midnightblue" stroke="midnightblue" points="218.823,-21.2402 208.347,-19.6545 215.548,-27.4267 218.823,-21.2402"/>
</g>
<!-- Node5 -->
<g id="node5" class="node"><title>Node5</title>
<polygon fill="white" stroke="#bfbfbf" points="234.5,-0.5 234.5,-19.5 287.5,-19.5 287.5,-0.5 234.5,-0.5"/>
<text text-anchor="middle" x="261" y="-7.5" font-family="Helvetica,sans-Serif" font-size="10.00">unistd.h</text>
</g>
<!-- Node1&#45;&gt;Node5 -->
<g id="edge4" class="edge"><title>Node1&#45;&gt;Node5</title>
<path fill="none" stroke="midnightblue" d="M288.551,-56.083C283.986,-48.6127 277.332,-37.7244 271.707,-28.5199"/>
<polygon fill="midnightblue" stroke="midnightblue" points="274.549,-26.4588 266.348,-19.7511 268.576,-30.109 274.549,-26.4588"/>
</g>
<!-- Node6 -->
<g id="node6" class="node"><title>Node6</title>
<polygon fill="white" stroke="#bfbfbf" points="306,-0.5 306,-19.5 350,-19.5 350,-0.5 306,-0.5"/>
<text text-anchor="middle" x="328" y="-7.5" font-family="Helvetica,sans-Serif" font-size="10.00">time.h</text>
</g>
<!-- Node1&#45;&gt;Node6 -->
<g id="edge5" class="edge"><title>Node1&#45;&gt;Node6</title>
<path fill="none" stroke="midnightblue" d="M299.614,-56.083C304.367,-48.5341 311.318,-37.4948 317.152,-28.2298"/>
<polygon fill="midnightblue" stroke="midnightblue" points="320.124,-30.0783 322.49,-19.7511 314.2,-26.3486 320.124,-30.0783"/>
</g>
<!-- Node7 -->
<g id="node7" class="node"><title>Node7</title>
<polygon fill="white" stroke="#bfbfbf" points="368.5,-0.5 368.5,-19.5 419.5,-19.5 419.5,-0.5 368.5,-0.5"/>
<text text-anchor="middle" x="394" y="-7.5" font-family="Helvetica,sans-Serif" font-size="10.00">string.h</text>
</g>
<!-- Node1&#45;&gt;Node7 -->
<g id="edge6" class="edge"><title>Node1&#45;&gt;Node7</title>
<path fill="none" stroke="midnightblue" d="M310.067,-56.324C325.958,-47.7428 350.507,-34.486 368.958,-24.5224"/>
<polygon fill="midnightblue" stroke="midnightblue" points="370.837,-27.4857 377.973,-19.6545 367.511,-21.3264 370.837,-27.4857"/>
</g>
<!-- Node8 -->
<g id="node8" class="node"><title>Node8</title>
<polygon fill="white" stroke="#bfbfbf" points="438,-0.5 438,-19.5 486,-19.5 486,-0.5 438,-0.5"/>
<text text-anchor="middle" x="462" y="-7.5" font-family="Helvetica,sans-Serif" font-size="10.00">math.h</text>
</g>
<!-- Node1&#45;&gt;Node8 -->
<g id="edge7" class="edge"><title>Node1&#45;&gt;Node8</title>
<path fill="none" stroke="midnightblue" d="M319.151,-56.9157C348.06,-47.6235 395.657,-32.3245 427.888,-21.9647"/>
<polygon fill="midnightblue" stroke="midnightblue" points="429.32,-25.1808 437.769,-18.7885 427.178,-18.5166 429.32,-25.1808"/>
</g>
<!-- Node9 -->
<g id="node9" class="node"><title>Node9</title>
<polygon fill="white" stroke="#bfbfbf" points="504.5,-0.5 504.5,-19.5 549.5,-19.5 549.5,-0.5 504.5,-0.5"/>
<text text-anchor="middle" x="527" y="-7.5" font-family="Helvetica,sans-Serif" font-size="10.00">float.h</text>
</g>
<!-- Node1&#45;&gt;Node9 -->
<g id="edge8" class="edge"><title>Node1&#45;&gt;Node9</title>
<path fill="none" stroke="midnightblue" d="M319.172,-59.8201C355.623,-52.2208 425.429,-37.3015 494.567,-19.9998"/>
<polygon fill="midnightblue" stroke="midnightblue" points="495.473,-23.381 504.315,-17.5432 493.763,-16.5932 495.473,-23.381"/>
</g>
</g>
</svg>
