<?xml version="1.0" encoding="UTF-8" standalone="no"?>
<!DOCTYPE svg PUBLIC "-//W3C//DTD SVG 1.1//EN"
 "http://www.w3.org/Graphics/SVG/1.1/DTD/svg11.dtd">
<!-- Generated by graphviz version 2.38.0 (20140413.2041)
 -->
<!-- Title: pixel_qsort Pages: 1 -->
<svg width="232pt" height="28pt"
 viewBox="0.00 0.00 232.00 28.00" xmlns="http://www.w3.org/2000/svg" xmlns:xlink="http://www.w3.org/1999/xlink">
<g id="graph0" class="graph" transform="scale(1 1) rotate(0) translate(4 24)">
<title>pixel_qsort</title>
<polygon fill="white" stroke="none" points="-4,4 -4,-24 228,-24 228,4 -4,4"/>
<!-- Node1 -->
<g id="node1" class="node"><title>Node1</title>
<polygon fill="#bfbfbf" stroke="black" points="0,-0.5 0,-19.5 68,-19.5 68,-0.5 0,-0.5"/>
<text text-anchor="middle" x="34" y="-7.5" font-family="Helvetica,sans-Serif" font-size="10.00">pixel_qsort</text>
</g>
<!-- Node2 -->
<g id="node2" class="node"><title>Node2</title>
<g id="a_node2"><a xlink:href="../../de/d15/demo_8c.html#a2d8035c68b418baeee0f6e0cfeba3d27" target="_top" xlink:title="bench">
<polygon fill="white" stroke="black" points="104,-0.5 104,-19.5 149,-19.5 149,-0.5 104,-0.5"/>
<text text-anchor="middle" x="126.5" y="-7.5" font-family="Helvetica,sans-Serif" font-size="10.00">bench</text>
</a>
</g>
</g>
<!-- Node1&#45;&gt;Node2 -->
<g id="edge1" class="edge"><title>Node1&#45;&gt;Node2</title>
<path fill="none" stroke="midnightblue" d="M78.4345,-10C87.2707,-10 96.1993,-10 103.87,-10"/>
<polygon fill="midnightblue" stroke="midnightblue" points="78.185,-6.5001 68.185,-10 78.1849,-13.5001 78.185,-6.5001"/>
</g>
<!-- Node3 -->
<g id="node3" class="node"><title>Node3</title>
<g id="a_node3"><a xlink:href="../../de/d15/demo_8c.html#a0ddf1224851353fc92bfbff6f499fa97" target="_top" xlink:title="Main driver demo for median search routines. ">
<polygon fill="white" stroke="black" points="185,-0.5 185,-19.5 224,-19.5 224,-0.5 185,-0.5"/>
<text text-anchor="middle" x="204.5" y="-7.5" font-family="Helvetica,sans-Serif" font-size="10.00">main</text>
</a>
</g>
</g>
<!-- Node2&#45;&gt;Node3 -->
<g id="edge2" class="edge"><title>Node2&#45;&gt;Node3</title>
<path fill="none" stroke="midnightblue" d="M159.287,-10C167.941,-10 177.037,-10 184.713,-10"/>
<polygon fill="midnightblue" stroke="midnightblue" points="159.075,-6.5001 149.075,-10 159.075,-13.5001 159.075,-6.5001"/>
</g>
</g>
</svg>
