<?xml version="1.0" encoding="UTF-8" standalone="no"?>
<!DOCTYPE svg PUBLIC "-//W3C//DTD SVG 1.1//EN"
 "http://www.w3.org/Graphics/SVG/1.1/DTD/svg11.dtd">
<!-- Generated by graphviz version 2.38.0 (20140413.2041)
 -->
<!-- Title: bench Pages: 1 -->
<svg width="356pt" height="180pt"
 viewBox="0.00 0.00 356.00 180.00" xmlns="http://www.w3.org/2000/svg" xmlns:xlink="http://www.w3.org/1999/xlink">
<g id="graph0" class="graph" transform="scale(1 1) rotate(0) translate(4 176)">
<title>bench</title>
<polygon fill="white" stroke="none" points="-4,4 -4,-176 352,-176 352,4 -4,4"/>
<!-- Node1 -->
<g id="node1" class="node"><title>Node1</title>
<polygon fill="#bfbfbf" stroke="black" points="0,-76.5 0,-95.5 45,-95.5 45,-76.5 0,-76.5"/>
<text text-anchor="middle" x="22.5" y="-83.5" font-family="Helvetica,sans-Serif" font-size="10.00">bench</text>
</g>
<!-- Node2 -->
<g id="node2" class="node"><title>Node2</title>
<g id="a_node2"><a xlink:href="../../de/d15/demo_8c.html#aa146dd4efc3c8ce58114c25b9c10480a" target="_top" xlink:title="This function uses select_k to find the median. ">
<polygon fill="white" stroke="black" points="81,-152.5 81,-171.5 160,-171.5 160,-152.5 81,-152.5"/>
<text text-anchor="middle" x="120.5" y="-159.5" font-family="Helvetica,sans-Serif" font-size="10.00">median_AHU</text>
</a>
</g>
</g>
<!-- Node1&#45;&gt;Node2 -->
<g id="edge1" class="edge"><title>Node1&#45;&gt;Node2</title>
<path fill="none" stroke="midnightblue" d="M31.6528,-95.8478C42.1281,-108.054 61.3192,-128.958 81,-143 83.1236,-144.515 85.3862,-145.971 87.7101,-147.356"/>
<polygon fill="midnightblue" stroke="midnightblue" points="86.3569,-150.605 96.8123,-152.318 89.7072,-144.458 86.3569,-150.605"/>
</g>
<!-- Node4 -->
<g id="node4" class="node"><title>Node4</title>
<g id="a_node4"><a xlink:href="../../de/d15/demo_8c.html#a5564e9170bc0498b579d2d8467c5dce7" target="_top" xlink:title="Old and supposedly optimized quicksort algorithm. ">
<polygon fill="white" stroke="black" points="86.5,-114.5 86.5,-133.5 154.5,-133.5 154.5,-114.5 86.5,-114.5"/>
<text text-anchor="middle" x="120.5" y="-121.5" font-family="Helvetica,sans-Serif" font-size="10.00">pixel_qsort</text>
</a>
</g>
</g>
<!-- Node1&#45;&gt;Node4 -->
<g id="edge3" class="edge"><title>Node1&#45;&gt;Node4</title>
<path fill="none" stroke="midnightblue" d="M45.2839,-94.6228C57.3031,-99.3804 72.4858,-105.39 85.9828,-110.733"/>
<polygon fill="midnightblue" stroke="midnightblue" points="84.8573,-114.051 95.4435,-114.478 87.4337,-107.543 84.8573,-114.051"/>
</g>
<!-- Node5 -->
<g id="node5" class="node"><title>Node5</title>
<g id="a_node5"><a xlink:href="../../d4/dd1/medians__1_d_8c.html#a0cedd060a4ebeb132c813b4a3a8c8441" target="_top" xlink:title="Function implementing quickselect algorithm. ">
<polygon fill="white" stroke="black" points="196.5,-57.5 196.5,-76.5 270.5,-76.5 270.5,-57.5 196.5,-57.5"/>
<text text-anchor="middle" x="233.5" y="-64.5" font-family="Helvetica,sans-Serif" font-size="10.00">quick_select</text>
</a>
</g>
</g>
<!-- Node1&#45;&gt;Node5 -->
<g id="edge4" class="edge"><title>Node1&#45;&gt;Node5</title>
<path fill="none" stroke="midnightblue" d="M45.0795,-84.0382C78.1977,-81.0275 142.327,-75.1975 186.263,-71.2034"/>
<polygon fill="midnightblue" stroke="midnightblue" points="186.772,-74.6717 196.414,-70.2806 186.138,-67.7004 186.772,-74.6717"/>
</g>
<!-- Node7 -->
<g id="node7" class="node"><title>Node7</title>
<g id="a_node7"><a xlink:href="../../d4/dd1/medians__1_d_8c.html#aa891eebcd64cca44f792ea97ccec0aa0" target="_top" xlink:title="Function implementing Torben&#39;s algorithm. ">
<polygon fill="white" stroke="black" points="97,-38.5 97,-57.5 144,-57.5 144,-38.5 97,-38.5"/>
<text text-anchor="middle" x="120.5" y="-45.5" font-family="Helvetica,sans-Serif" font-size="10.00">torben</text>
</a>
</g>
</g>
<!-- Node1&#45;&gt;Node7 -->
<g id="edge6" class="edge"><title>Node1&#45;&gt;Node7</title>
<path fill="none" stroke="midnightblue" d="M45.2839,-77.3772C57.6592,-72.4786 73.3883,-66.2526 87.178,-60.7941"/>
<polygon fill="midnightblue" stroke="midnightblue" points="88.7908,-63.92 96.8006,-56.9852 86.2144,-57.4114 88.7908,-63.92"/>
</g>
<!-- Node8 -->
<g id="node8" class="node"><title>Node8</title>
<g id="a_node8"><a xlink:href="../../d4/dd1/medians__1_d_8c.html#ada33df13fb2896f5232cf65ec6dfdd65" target="_top" xlink:title="Function wrapper for kth_smallest to get Wirth&#39;s median. ">
<polygon fill="white" stroke="black" points="101,-0.5 101,-19.5 140,-19.5 140,-0.5 101,-0.5"/>
<text text-anchor="middle" x="120.5" y="-7.5" font-family="Helvetica,sans-Serif" font-size="10.00">wirth</text>
</a>
</g>
</g>
<!-- Node1&#45;&gt;Node8 -->
<g id="edge7" class="edge"><title>Node1&#45;&gt;Node8</title>
<path fill="none" stroke="midnightblue" d="M31.6528,-76.1522C42.1281,-63.9461 61.3192,-43.0424 81,-29 84.3182,-26.6325 87.9756,-24.4094 91.6759,-22.3771"/>
<polygon fill="midnightblue" stroke="midnightblue" points="93.4637,-25.3947 100.794,-17.7446 90.2929,-19.1539 93.4637,-25.3947"/>
</g>
<!-- Node3 -->
<g id="node3" class="node"><title>Node3</title>
<g id="a_node3"><a xlink:href="../../de/d15/demo_8c.html#a07c959fd486bc669c6e48d675e99f0ab" target="_top" xlink:title="Called by median_AHU() ">
<polygon fill="white" stroke="black" points="205.5,-152.5 205.5,-171.5 261.5,-171.5 261.5,-152.5 205.5,-152.5"/>
<text text-anchor="middle" x="233.5" y="-159.5" font-family="Helvetica,sans-Serif" font-size="10.00">select_k</text>
</a>
</g>
</g>
<!-- Node2&#45;&gt;Node3 -->
<g id="edge2" class="edge"><title>Node2&#45;&gt;Node3</title>
<path fill="none" stroke="midnightblue" d="M160.011,-162C171.421,-162 183.891,-162 195.221,-162"/>
<polygon fill="midnightblue" stroke="midnightblue" points="195.243,-165.5 205.243,-162 195.243,-158.5 195.243,-165.5"/>
</g>
<!-- Node6 -->
<g id="node6" class="node"><title>Node6</title>
<g id="a_node6"><a xlink:href="../../d4/dd1/medians__1_d_8c.html#a0c35bef9bb8ae716de63252891625ccb" target="_top" xlink:title="Pixel&#45;swapping macro. ">
<polygon fill="white" stroke="black" points="307,-33.5 307,-52.5 348,-52.5 348,-33.5 307,-33.5"/>
<text text-anchor="middle" x="327.5" y="-40.5" font-family="Helvetica,sans-Serif" font-size="10.00">swap</text>
</a>
</g>
</g>
<!-- Node5&#45;&gt;Node6 -->
<g id="edge5" class="edge"><title>Node5&#45;&gt;Node6</title>
<path fill="none" stroke="midnightblue" d="M270.597,-57.5834C279.401,-55.2867 288.713,-52.8575 297.159,-50.6542"/>
<polygon fill="midnightblue" stroke="midnightblue" points="298.146,-54.0138 306.939,-48.1029 296.379,-47.2405 298.146,-54.0138"/>
</g>
<!-- Node9 -->
<g id="node9" class="node"><title>Node9</title>
<g id="a_node9"><a xlink:href="../../d4/dd1/medians__1_d_8c.html#a8b387bed7acabb676d84bf0e616dbe49" target="_top" xlink:title="Function implementing kth_smallest() for Wirth macro. ">
<polygon fill="white" stroke="black" points="196,-10.5 196,-29.5 271,-29.5 271,-10.5 196,-10.5"/>
<text text-anchor="middle" x="233.5" y="-17.5" font-family="Helvetica,sans-Serif" font-size="10.00">kth_smallest</text>
</a>
</g>
</g>
<!-- Node8&#45;&gt;Node9 -->
<g id="edge8" class="edge"><title>Node8&#45;&gt;Node9</title>
<path fill="none" stroke="midnightblue" d="M140.079,-11.6738C152.533,-12.7958 169.527,-14.3268 185.547,-15.77"/>
<polygon fill="midnightblue" stroke="midnightblue" points="185.603,-19.2891 195.877,-16.7006 186.231,-12.3174 185.603,-19.2891"/>
</g>
<!-- Node9&#45;&gt;Node6 -->
<g id="edge9" class="edge"><title>Node9&#45;&gt;Node6</title>
<path fill="none" stroke="midnightblue" d="M271.125,-29.1563C279.722,-31.3055 288.775,-33.5688 297.013,-35.6283"/>
<polygon fill="midnightblue" stroke="midnightblue" points="296.367,-39.0743 306.917,-38.1043 298.065,-32.2833 296.367,-39.0743"/>
</g>
</g>
</svg>
