<?xml version="1.0" encoding="UTF-8" standalone="no"?>
<!DOCTYPE svg PUBLIC "-//W3C//DTD SVG 1.1//EN"
 "http://www.w3.org/Graphics/SVG/1.1/DTD/svg11.dtd">
<!-- Generated by graphviz version 2.38.0 (20140413.2041)
 -->
<!-- Title: main Pages: 1 -->
<svg width="431pt" height="180pt"
 viewBox="0.00 0.00 431.00 180.00" xmlns="http://www.w3.org/2000/svg" xmlns:xlink="http://www.w3.org/1999/xlink">
<g id="graph0" class="graph" transform="scale(1 1) rotate(0) translate(4 176)">
<title>main</title>
<polygon fill="white" stroke="none" points="-4,4 -4,-176 427,-176 427,4 -4,4"/>
<!-- Node1 -->
<g id="node1" class="node"><title>Node1</title>
<polygon fill="#bfbfbf" stroke="black" points="0,-76.5 0,-95.5 39,-95.5 39,-76.5 0,-76.5"/>
<text text-anchor="middle" x="19.5" y="-83.5" font-family="Helvetica,sans-Serif" font-size="10.00">main</text>
</g>
<!-- Node2 -->
<g id="node2" class="node"><title>Node2</title>
<g id="a_node2"><a xlink:href="../../de/d15/demo_8c.html#a2d8035c68b418baeee0f6e0cfeba3d27" target="_top" xlink:title="bench">
<polygon fill="white" stroke="black" points="75,-76.5 75,-95.5 120,-95.5 120,-76.5 75,-76.5"/>
<text text-anchor="middle" x="97.5" y="-83.5" font-family="Helvetica,sans-Serif" font-size="10.00">bench</text>
</a>
</g>
</g>
<!-- Node1&#45;&gt;Node2 -->
<g id="edge1" class="edge"><title>Node1&#45;&gt;Node2</title>
<path fill="none" stroke="midnightblue" d="M39.2865,-86C46.9741,-86 56.0854,-86 64.7508,-86"/>
<polygon fill="midnightblue" stroke="midnightblue" points="64.9739,-89.5001 74.9739,-86 64.9739,-82.5001 64.9739,-89.5001"/>
</g>
<!-- Node3 -->
<g id="node3" class="node"><title>Node3</title>
<g id="a_node3"><a xlink:href="../../de/d15/demo_8c.html#aa146dd4efc3c8ce58114c25b9c10480a" target="_top" xlink:title="This function uses select_k to find the median. ">
<polygon fill="white" stroke="black" points="156,-152.5 156,-171.5 235,-171.5 235,-152.5 156,-152.5"/>
<text text-anchor="middle" x="195.5" y="-159.5" font-family="Helvetica,sans-Serif" font-size="10.00">median_AHU</text>
</a>
</g>
</g>
<!-- Node2&#45;&gt;Node3 -->
<g id="edge2" class="edge"><title>Node2&#45;&gt;Node3</title>
<path fill="none" stroke="midnightblue" d="M106.653,-95.8478C117.128,-108.054 136.319,-128.958 156,-143 158.124,-144.515 160.386,-145.971 162.71,-147.356"/>
<polygon fill="midnightblue" stroke="midnightblue" points="161.357,-150.605 171.812,-152.318 164.707,-144.458 161.357,-150.605"/>
</g>
<!-- Node5 -->
<g id="node5" class="node"><title>Node5</title>
<g id="a_node5"><a xlink:href="../../de/d15/demo_8c.html#a5564e9170bc0498b579d2d8467c5dce7" target="_top" xlink:title="Old and supposedly optimized quicksort algorithm. ">
<polygon fill="white" stroke="black" points="161.5,-114.5 161.5,-133.5 229.5,-133.5 229.5,-114.5 161.5,-114.5"/>
<text text-anchor="middle" x="195.5" y="-121.5" font-family="Helvetica,sans-Serif" font-size="10.00">pixel_qsort</text>
</a>
</g>
</g>
<!-- Node2&#45;&gt;Node5 -->
<g id="edge4" class="edge"><title>Node2&#45;&gt;Node5</title>
<path fill="none" stroke="midnightblue" d="M120.284,-94.6228C132.303,-99.3804 147.486,-105.39 160.983,-110.733"/>
<polygon fill="midnightblue" stroke="midnightblue" points="159.857,-114.051 170.444,-114.478 162.434,-107.543 159.857,-114.051"/>
</g>
<!-- Node6 -->
<g id="node6" class="node"><title>Node6</title>
<g id="a_node6"><a xlink:href="../../d4/dd1/medians__1_d_8c.html#a0cedd060a4ebeb132c813b4a3a8c8441" target="_top" xlink:title="Function implementing quickselect algorithm. ">
<polygon fill="white" stroke="black" points="271.5,-57.5 271.5,-76.5 345.5,-76.5 345.5,-57.5 271.5,-57.5"/>
<text text-anchor="middle" x="308.5" y="-64.5" font-family="Helvetica,sans-Serif" font-size="10.00">quick_select</text>
</a>
</g>
</g>
<!-- Node2&#45;&gt;Node6 -->
<g id="edge5" class="edge"><title>Node2&#45;&gt;Node6</title>
<path fill="none" stroke="midnightblue" d="M120.079,-84.0382C153.198,-81.0275 217.327,-75.1975 261.263,-71.2034"/>
<polygon fill="midnightblue" stroke="midnightblue" points="261.772,-74.6717 271.414,-70.2806 261.138,-67.7004 261.772,-74.6717"/>
</g>
<!-- Node8 -->
<g id="node8" class="node"><title>Node8</title>
<g id="a_node8"><a xlink:href="../../d4/dd1/medians__1_d_8c.html#aa891eebcd64cca44f792ea97ccec0aa0" target="_top" xlink:title="Function implementing Torben&#39;s algorithm. ">
<polygon fill="white" stroke="black" points="172,-38.5 172,-57.5 219,-57.5 219,-38.5 172,-38.5"/>
<text text-anchor="middle" x="195.5" y="-45.5" font-family="Helvetica,sans-Serif" font-size="10.00">torben</text>
</a>
</g>
</g>
<!-- Node2&#45;&gt;Node8 -->
<g id="edge7" class="edge"><title>Node2&#45;&gt;Node8</title>
<path fill="none" stroke="midnightblue" d="M120.284,-77.3772C132.659,-72.4786 148.388,-66.2526 162.178,-60.7941"/>
<polygon fill="midnightblue" stroke="midnightblue" points="163.791,-63.92 171.801,-56.9852 161.214,-57.4114 163.791,-63.92"/>
</g>
<!-- Node9 -->
<g id="node9" class="node"><title>Node9</title>
<g id="a_node9"><a xlink:href="../../d4/dd1/medians__1_d_8c.html#ada33df13fb2896f5232cf65ec6dfdd65" target="_top" xlink:title="Function wrapper for kth_smallest to get Wirth&#39;s median. ">
<polygon fill="white" stroke="black" points="176,-0.5 176,-19.5 215,-19.5 215,-0.5 176,-0.5"/>
<text text-anchor="middle" x="195.5" y="-7.5" font-family="Helvetica,sans-Serif" font-size="10.00">wirth</text>
</a>
</g>
</g>
<!-- Node2&#45;&gt;Node9 -->
<g id="edge8" class="edge"><title>Node2&#45;&gt;Node9</title>
<path fill="none" stroke="midnightblue" d="M106.653,-76.1522C117.128,-63.9461 136.319,-43.0424 156,-29 159.318,-26.6325 162.976,-24.4094 166.676,-22.3771"/>
<polygon fill="midnightblue" stroke="midnightblue" points="168.464,-25.3947 175.794,-17.7446 165.293,-19.1539 168.464,-25.3947"/>
</g>
<!-- Node4 -->
<g id="node4" class="node"><title>Node4</title>
<g id="a_node4"><a xlink:href="../../de/d15/demo_8c.html#a07c959fd486bc669c6e48d675e99f0ab" target="_top" xlink:title="Called by median_AHU() ">
<polygon fill="white" stroke="black" points="280.5,-152.5 280.5,-171.5 336.5,-171.5 336.5,-152.5 280.5,-152.5"/>
<text text-anchor="middle" x="308.5" y="-159.5" font-family="Helvetica,sans-Serif" font-size="10.00">select_k</text>
</a>
</g>
</g>
<!-- Node3&#45;&gt;Node4 -->
<g id="edge3" class="edge"><title>Node3&#45;&gt;Node4</title>
<path fill="none" stroke="midnightblue" d="M235.011,-162C246.421,-162 258.891,-162 270.221,-162"/>
<polygon fill="midnightblue" stroke="midnightblue" points="270.243,-165.5 280.243,-162 270.243,-158.5 270.243,-165.5"/>
</g>
<!-- Node7 -->
<g id="node7" class="node"><title>Node7</title>
<g id="a_node7"><a xlink:href="../../d4/dd1/medians__1_d_8c.html#a0c35bef9bb8ae716de63252891625ccb" target="_top" xlink:title="Pixel&#45;swapping macro. ">
<polygon fill="white" stroke="black" points="382,-33.5 382,-52.5 423,-52.5 423,-33.5 382,-33.5"/>
<text text-anchor="middle" x="402.5" y="-40.5" font-family="Helvetica,sans-Serif" font-size="10.00">swap</text>
</a>
</g>
</g>
<!-- Node6&#45;&gt;Node7 -->
<g id="edge6" class="edge"><title>Node6&#45;&gt;Node7</title>
<path fill="none" stroke="midnightblue" d="M345.597,-57.5834C354.401,-55.2867 363.713,-52.8575 372.159,-50.6542"/>
<polygon fill="midnightblue" stroke="midnightblue" points="373.146,-54.0138 381.939,-48.1029 371.379,-47.2405 373.146,-54.0138"/>
</g>
<!-- Node10 -->
<g id="node10" class="node"><title>Node10</title>
<g id="a_node10"><a xlink:href="../../d4/dd1/medians__1_d_8c.html#a8b387bed7acabb676d84bf0e616dbe49" target="_top" xlink:title="Function implementing kth_smallest() for Wirth macro. ">
<polygon fill="white" stroke="black" points="271,-10.5 271,-29.5 346,-29.5 346,-10.5 271,-10.5"/>
<text text-anchor="middle" x="308.5" y="-17.5" font-family="Helvetica,sans-Serif" font-size="10.00">kth_smallest</text>
</a>
</g>
</g>
<!-- Node9&#45;&gt;Node10 -->
<g id="edge9" class="edge"><title>Node9&#45;&gt;Node10</title>
<path fill="none" stroke="midnightblue" d="M215.079,-11.6738C227.533,-12.7958 244.527,-14.3268 260.547,-15.77"/>
<polygon fill="midnightblue" stroke="midnightblue" points="260.603,-19.2891 270.877,-16.7006 261.231,-12.3174 260.603,-19.2891"/>
</g>
<!-- Node10&#45;&gt;Node7 -->
<g id="edge10" class="edge"><title>Node10&#45;&gt;Node7</title>
<path fill="none" stroke="midnightblue" d="M346.125,-29.1563C354.722,-31.3055 363.775,-33.5688 372.013,-35.6283"/>
<polygon fill="midnightblue" stroke="midnightblue" points="371.367,-39.0743 381.917,-38.1043 373.065,-32.2833 371.367,-39.0743"/>
</g>
</g>
</svg>
