<?xml version="1.0" encoding="UTF-8" standalone="no"?>
<!DOCTYPE svg PUBLIC "-//W3C//DTD SVG 1.1//EN"
 "http://www.w3.org/Graphics/SVG/1.1/DTD/svg11.dtd">
<!-- Generated by graphviz version 2.38.0 (20140413.2041)
 -->
<!-- Title: torben Pages: 1 -->
<svg width="211pt" height="28pt"
 viewBox="0.00 0.00 211.00 28.00" xmlns="http://www.w3.org/2000/svg" xmlns:xlink="http://www.w3.org/1999/xlink">
<g id="graph0" class="graph" transform="scale(1 1) rotate(0) translate(4 24)">
<title>torben</title>
<polygon fill="white" stroke="none" points="-4,4 -4,-24 207,-24 207,4 -4,4"/>
<!-- Node1 -->
<g id="node1" class="node"><title>Node1</title>
<polygon fill="#bfbfbf" stroke="black" points="0,-0.5 0,-19.5 47,-19.5 47,-0.5 0,-0.5"/>
<text text-anchor="middle" x="23.5" y="-7.5" font-family="Helvetica,sans-Serif" font-size="10.00">torben</text>
</g>
<!-- Node2 -->
<g id="node2" class="node"><title>Node2</title>
<g id="a_node2"><a xlink:href="../../de/d15/demo_8c.html#a2d8035c68b418baeee0f6e0cfeba3d27" target="_top" xlink:title="bench">
<polygon fill="white" stroke="black" points="83,-0.5 83,-19.5 128,-19.5 128,-0.5 83,-0.5"/>
<text text-anchor="middle" x="105.5" y="-7.5" font-family="Helvetica,sans-Serif" font-size="10.00">bench</text>
</a>
</g>
</g>
<!-- Node1&#45;&gt;Node2 -->
<g id="edge1" class="edge"><title>Node1&#45;&gt;Node2</title>
<path fill="none" stroke="midnightblue" d="M57.3531,-10C65.944,-10 74.9895,-10 82.8344,-10"/>
<polygon fill="midnightblue" stroke="midnightblue" points="57.2108,-6.5001 47.2108,-10 57.2108,-13.5001 57.2108,-6.5001"/>
</g>
<!-- Node3 -->
<g id="node3" class="node"><title>Node3</title>
<g id="a_node3"><a xlink:href="../../de/d15/demo_8c.html#a0ddf1224851353fc92bfbff6f499fa97" target="_top" xlink:title="Main driver demo for median search routines. ">
<polygon fill="white" stroke="black" points="164,-0.5 164,-19.5 203,-19.5 203,-0.5 164,-0.5"/>
<text text-anchor="middle" x="183.5" y="-7.5" font-family="Helvetica,sans-Serif" font-size="10.00">main</text>
</a>
</g>
</g>
<!-- Node2&#45;&gt;Node3 -->
<g id="edge2" class="edge"><title>Node2&#45;&gt;Node3</title>
<path fill="none" stroke="midnightblue" d="M138.287,-10C146.941,-10 156.037,-10 163.713,-10"/>
<polygon fill="midnightblue" stroke="midnightblue" points="138.075,-6.5001 128.075,-10 138.075,-13.5001 138.075,-6.5001"/>
</g>
</g>
</svg>
