<?xml version="1.0" encoding="UTF-8" standalone="no"?>
<!DOCTYPE svg PUBLIC "-//W3C//DTD SVG 1.1//EN"
 "http://www.w3.org/Graphics/SVG/1.1/DTD/svg11.dtd">
<!-- Generated by graphviz version 2.38.0 (20140413.2041)
 -->
<!-- Title: wirth Pages: 1 -->
<svg width="235pt" height="28pt"
 viewBox="0.00 0.00 235.00 28.00" xmlns="http://www.w3.org/2000/svg" xmlns:xlink="http://www.w3.org/1999/xlink">
<g id="graph0" class="graph" transform="scale(1 1) rotate(0) translate(4 24)">
<title>wirth</title>
<polygon fill="white" stroke="none" points="-4,4 -4,-24 231,-24 231,4 -4,4"/>
<!-- Node1 -->
<g id="node1" class="node"><title>Node1</title>
<polygon fill="#bfbfbf" stroke="black" points="0,-0.5 0,-19.5 39,-19.5 39,-0.5 0,-0.5"/>
<text text-anchor="middle" x="19.5" y="-7.5" font-family="Helvetica,sans-Serif" font-size="10.00">wirth</text>
</g>
<!-- Node2 -->
<g id="node2" class="node"><title>Node2</title>
<g id="a_node2"><a xlink:href="../../d4/dd1/medians__1_d_8c.html#a8b387bed7acabb676d84bf0e616dbe49" target="_top" xlink:title="Function implementing kth_smallest() for Wirth macro. ">
<polygon fill="white" stroke="black" points="75,-0.5 75,-19.5 150,-19.5 150,-0.5 75,-0.5"/>
<text text-anchor="middle" x="112.5" y="-7.5" font-family="Helvetica,sans-Serif" font-size="10.00">kth_smallest</text>
</a>
</g>
</g>
<!-- Node1&#45;&gt;Node2 -->
<g id="edge1" class="edge"><title>Node1&#45;&gt;Node2</title>
<path fill="none" stroke="midnightblue" d="M39.3553,-10C46.7689,-10 55.6396,-10 64.5834,-10"/>
<polygon fill="midnightblue" stroke="midnightblue" points="64.6385,-13.5001 74.6385,-10 64.6385,-6.5001 64.6385,-13.5001"/>
</g>
<!-- Node3 -->
<g id="node3" class="node"><title>Node3</title>
<g id="a_node3"><a xlink:href="../../d4/dd1/medians__1_d_8c.html#a0c35bef9bb8ae716de63252891625ccb" target="_top" xlink:title="Pixel&#45;swapping macro. ">
<polygon fill="white" stroke="black" points="186,-0.5 186,-19.5 227,-19.5 227,-0.5 186,-0.5"/>
<text text-anchor="middle" x="206.5" y="-7.5" font-family="Helvetica,sans-Serif" font-size="10.00">swap</text>
</a>
</g>
</g>
<!-- Node2&#45;&gt;Node3 -->
<g id="edge2" class="edge"><title>Node2&#45;&gt;Node3</title>
<path fill="none" stroke="midnightblue" d="M150.125,-10C158.626,-10 167.574,-10 175.738,-10"/>
<polygon fill="midnightblue" stroke="midnightblue" points="175.917,-13.5001 185.917,-10 175.917,-6.5001 175.917,-13.5001"/>
</g>
</g>
</svg>
