<?xml version="1.0" encoding="UTF-8" standalone="no"?>
<!DOCTYPE svg PUBLIC "-//W3C//DTD SVG 1.1//EN"
 "http://www.w3.org/Graphics/SVG/1.1/DTD/svg11.dtd">
<!-- Generated by graphviz version 2.38.0 (20140413.2041)
 -->
<!-- Title: swap Pages: 1 -->
<svg width="426pt" height="66pt"
 viewBox="0.00 0.00 426.00 66.00" xmlns="http://www.w3.org/2000/svg" xmlns:xlink="http://www.w3.org/1999/xlink">
<g id="graph0" class="graph" transform="scale(1 1) rotate(0) translate(4 62)">
<title>swap</title>
<polygon fill="white" stroke="none" points="-4,4 -4,-62 422,-62 422,4 -4,4"/>
<!-- Node1 -->
<g id="node1" class="node"><title>Node1</title>
<polygon fill="#bfbfbf" stroke="black" points="0,-19.5 0,-38.5 41,-38.5 41,-19.5 0,-19.5"/>
<text text-anchor="middle" x="20.5" y="-26.5" font-family="Helvetica,sans-Serif" font-size="10.00">swap</text>
</g>
<!-- Node2 -->
<g id="node2" class="node"><title>Node2</title>
<g id="a_node2"><a xlink:href="../../d4/dd1/medians__1_d_8c.html#a8b387bed7acabb676d84bf0e616dbe49" target="_top" xlink:title="Function implementing kth_smallest() for Wirth macro. ">
<polygon fill="white" stroke="black" points="77,-38.5 77,-57.5 152,-57.5 152,-38.5 77,-38.5"/>
<text text-anchor="middle" x="114.5" y="-45.5" font-family="Helvetica,sans-Serif" font-size="10.00">kth_smallest</text>
</a>
</g>
</g>
<!-- Node1&#45;&gt;Node2 -->
<g id="edge1" class="edge"><title>Node1&#45;&gt;Node2</title>
<path fill="none" stroke="midnightblue" d="M50.9461,-35.0813C59.2136,-36.7887 68.3045,-38.6661 76.9327,-40.4481"/>
<polygon fill="midnightblue" stroke="midnightblue" points="51.5121,-31.6244 41.0108,-33.0294 50.0963,-38.4797 51.5121,-31.6244"/>
</g>
<!-- Node6 -->
<g id="node6" class="node"><title>Node6</title>
<g id="a_node6"><a xlink:href="../../d4/dd1/medians__1_d_8c.html#a0cedd060a4ebeb132c813b4a3a8c8441" target="_top" xlink:title="Function implementing quickselect algorithm. ">
<polygon fill="white" stroke="black" points="188,-0.5 188,-19.5 262,-19.5 262,-0.5 188,-0.5"/>
<text text-anchor="middle" x="225" y="-7.5" font-family="Helvetica,sans-Serif" font-size="10.00">quick_select</text>
</a>
</g>
</g>
<!-- Node1&#45;&gt;Node6 -->
<g id="edge5" class="edge"><title>Node1&#45;&gt;Node6</title>
<path fill="none" stroke="midnightblue" d="M51.2546,-26.2082C87.5426,-22.8034 148.849,-17.0512 187.827,-13.394"/>
<polygon fill="midnightblue" stroke="midnightblue" points="50.9145,-22.7247 41.2853,-27.1436 51.5685,-29.694 50.9145,-22.7247"/>
</g>
<!-- Node3 -->
<g id="node3" class="node"><title>Node3</title>
<g id="a_node3"><a xlink:href="../../d4/dd1/medians__1_d_8c.html#ada33df13fb2896f5232cf65ec6dfdd65" target="_top" xlink:title="Function wrapper for kth_smallest to get Wirth&#39;s median. ">
<polygon fill="white" stroke="black" points="205.5,-38.5 205.5,-57.5 244.5,-57.5 244.5,-38.5 205.5,-38.5"/>
<text text-anchor="middle" x="225" y="-45.5" font-family="Helvetica,sans-Serif" font-size="10.00">wirth</text>
</a>
</g>
</g>
<!-- Node2&#45;&gt;Node3 -->
<g id="edge2" class="edge"><title>Node2&#45;&gt;Node3</title>
<path fill="none" stroke="midnightblue" d="M162.501,-48C177.593,-48 193.448,-48 205.279,-48"/>
<polygon fill="midnightblue" stroke="midnightblue" points="162.233,-44.5001 152.233,-48 162.233,-51.5001 162.233,-44.5001"/>
</g>
<!-- Node4 -->
<g id="node4" class="node"><title>Node4</title>
<g id="a_node4"><a xlink:href="../../de/d15/demo_8c.html#a2d8035c68b418baeee0f6e0cfeba3d27" target="_top" xlink:title="bench">
<polygon fill="white" stroke="black" points="298,-19.5 298,-38.5 343,-38.5 343,-19.5 298,-19.5"/>
<text text-anchor="middle" x="320.5" y="-26.5" font-family="Helvetica,sans-Serif" font-size="10.00">bench</text>
</a>
</g>
</g>
<!-- Node3&#45;&gt;Node4 -->
<g id="edge3" class="edge"><title>Node3&#45;&gt;Node4</title>
<path fill="none" stroke="midnightblue" d="M254.967,-42.1137C268.862,-39.2901 285.22,-35.9659 297.991,-33.3709"/>
<polygon fill="midnightblue" stroke="midnightblue" points="254.024,-38.7337 244.921,-44.1551 255.418,-45.5935 254.024,-38.7337"/>
</g>
<!-- Node5 -->
<g id="node5" class="node"><title>Node5</title>
<g id="a_node5"><a xlink:href="../../de/d15/demo_8c.html#a0ddf1224851353fc92bfbff6f499fa97" target="_top" xlink:title="Main driver demo for median search routines. ">
<polygon fill="white" stroke="black" points="379,-19.5 379,-38.5 418,-38.5 418,-19.5 379,-19.5"/>
<text text-anchor="middle" x="398.5" y="-26.5" font-family="Helvetica,sans-Serif" font-size="10.00">main</text>
</a>
</g>
</g>
<!-- Node4&#45;&gt;Node5 -->
<g id="edge4" class="edge"><title>Node4&#45;&gt;Node5</title>
<path fill="none" stroke="midnightblue" d="M353.287,-29C361.941,-29 371.037,-29 378.713,-29"/>
<polygon fill="midnightblue" stroke="midnightblue" points="353.075,-25.5001 343.075,-29 353.075,-32.5001 353.075,-25.5001"/>
</g>
<!-- Node6&#45;&gt;Node4 -->
<g id="edge6" class="edge"><title>Node6&#45;&gt;Node4</title>
<path fill="none" stroke="midnightblue" d="M272.165,-19.3812C281.109,-21.1987 290.082,-23.0219 297.773,-24.5849"/>
<polygon fill="midnightblue" stroke="midnightblue" points="272.646,-15.9075 262.15,-17.3459 271.252,-22.7673 272.646,-15.9075"/>
</g>
</g>
</svg>
