<?xml version="1.0" encoding="UTF-8" standalone="no"?>
<!DOCTYPE svg PUBLIC "-//W3C//DTD SVG 1.1//EN"
 "http://www.w3.org/Graphics/SVG/1.1/DTD/svg11.dtd">
<!-- Generated by graphviz version 2.38.0 (20140413.2041)
 -->
<!-- Title: kth_smallest Pages: 1 -->
<svg width="314pt" height="28pt"
 viewBox="0.00 0.00 314.00 28.00" xmlns="http://www.w3.org/2000/svg" xmlns:xlink="http://www.w3.org/1999/xlink">
<g id="graph0" class="graph" transform="scale(1 1) rotate(0) translate(4 24)">
<title>kth_smallest</title>
<polygon fill="white" stroke="none" points="-4,4 -4,-24 310,-24 310,4 -4,4"/>
<!-- Node1 -->
<g id="node1" class="node"><title>Node1</title>
<polygon fill="#bfbfbf" stroke="black" points="0,-0.5 0,-19.5 75,-19.5 75,-0.5 0,-0.5"/>
<text text-anchor="middle" x="37.5" y="-7.5" font-family="Helvetica,sans-Serif" font-size="10.00">kth_smallest</text>
</g>
<!-- Node2 -->
<g id="node2" class="node"><title>Node2</title>
<g id="a_node2"><a xlink:href="../../d4/dd1/medians__1_d_8c.html#ada33df13fb2896f5232cf65ec6dfdd65" target="_top" xlink:title="Function wrapper for kth_smallest to get Wirth&#39;s median. ">
<polygon fill="white" stroke="black" points="111,-0.5 111,-19.5 150,-19.5 150,-0.5 111,-0.5"/>
<text text-anchor="middle" x="130.5" y="-7.5" font-family="Helvetica,sans-Serif" font-size="10.00">wirth</text>
</a>
</g>
</g>
<!-- Node1&#45;&gt;Node2 -->
<g id="edge1" class="edge"><title>Node1&#45;&gt;Node2</title>
<path fill="none" stroke="midnightblue" d="M85.4067,-10C94.4413,-10 103.402,-10 110.862,-10"/>
<polygon fill="midnightblue" stroke="midnightblue" points="85.2509,-6.5001 75.2509,-10 85.2508,-13.5001 85.2509,-6.5001"/>
</g>
<!-- Node3 -->
<g id="node3" class="node"><title>Node3</title>
<g id="a_node3"><a xlink:href="../../de/d15/demo_8c.html#a2d8035c68b418baeee0f6e0cfeba3d27" target="_top" xlink:title="bench">
<polygon fill="white" stroke="black" points="186,-0.5 186,-19.5 231,-19.5 231,-0.5 186,-0.5"/>
<text text-anchor="middle" x="208.5" y="-7.5" font-family="Helvetica,sans-Serif" font-size="10.00">bench</text>
</a>
</g>
</g>
<!-- Node2&#45;&gt;Node3 -->
<g id="edge2" class="edge"><title>Node2&#45;&gt;Node3</title>
<path fill="none" stroke="midnightblue" d="M160.526,-10C168.982,-10 178.068,-10 185.974,-10"/>
<polygon fill="midnightblue" stroke="midnightblue" points="160.287,-6.5001 150.287,-10 160.286,-13.5001 160.287,-6.5001"/>
</g>
<!-- Node4 -->
<g id="node4" class="node"><title>Node4</title>
<g id="a_node4"><a xlink:href="../../de/d15/demo_8c.html#a0ddf1224851353fc92bfbff6f499fa97" target="_top" xlink:title="Main driver demo for median search routines. ">
<polygon fill="white" stroke="black" points="267,-0.5 267,-19.5 306,-19.5 306,-0.5 267,-0.5"/>
<text text-anchor="middle" x="286.5" y="-7.5" font-family="Helvetica,sans-Serif" font-size="10.00">main</text>
</a>
</g>
</g>
<!-- Node3&#45;&gt;Node4 -->
<g id="edge3" class="edge"><title>Node3&#45;&gt;Node4</title>
<path fill="none" stroke="midnightblue" d="M241.287,-10C249.941,-10 259.037,-10 266.713,-10"/>
<polygon fill="midnightblue" stroke="midnightblue" points="241.075,-6.5001 231.075,-10 241.075,-13.5001 241.075,-6.5001"/>
</g>
</g>
</svg>
