<?xml version="1.0" encoding="UTF-8" standalone="no"?>
<!DOCTYPE svg PUBLIC "-//W3C//DTD SVG 1.1//EN"
 "http://www.w3.org/Graphics/SVG/1.1/DTD/svg11.dtd">
<!-- Generated by graphviz version 2.38.0 (20140413.2041)
 -->
<!-- Title: medians_1D.c Pages: 1 -->
<svg width="296pt" height="84pt"
 viewBox="0.00 0.00 295.50 84.00" xmlns="http://www.w3.org/2000/svg" xmlns:xlink="http://www.w3.org/1999/xlink">
<g id="graph0" class="graph" transform="scale(1 1) rotate(0) translate(4 80)">
<title>medians_1D.c</title>
<polygon fill="white" stroke="none" points="-4,4 -4,-80 291.5,-80 291.5,4 -4,4"/>
<!-- Node1 -->
<g id="node1" class="node"><title>Node1</title>
<polygon fill="#bfbfbf" stroke="black" points="117.5,-56.5 117.5,-75.5 200.5,-75.5 200.5,-56.5 117.5,-56.5"/>
<text text-anchor="middle" x="159" y="-63.5" font-family="Helvetica,sans-Serif" font-size="10.00">medians_1D.c</text>
</g>
<!-- Node2 -->
<g id="node2" class="node"><title>Node2</title>
<polygon fill="white" stroke="#bfbfbf" points="0,-0.5 0,-19.5 84,-19.5 84,-0.5 0,-0.5"/>
<text text-anchor="middle" x="42" y="-7.5" font-family="Helvetica,sans-Serif" font-size="10.00">medians_1D.h</text>
</g>
<!-- Node1&#45;&gt;Node2 -->
<g id="edge1" class="edge"><title>Node1&#45;&gt;Node2</title>
<path fill="none" stroke="midnightblue" d="M140.461,-56.4435C121.377,-47.6356 91.4251,-33.8116 69.5643,-23.722"/>
<polygon fill="midnightblue" stroke="midnightblue" points="70.9986,-20.5292 60.4523,-19.5164 68.0651,-26.8849 70.9986,-20.5292"/>
</g>
<!-- Node3 -->
<g id="node3" class="node"><title>Node3</title>
<polygon fill="white" stroke="#bfbfbf" points="102.5,-0.5 102.5,-19.5 149.5,-19.5 149.5,-0.5 102.5,-0.5"/>
<text text-anchor="middle" x="126" y="-7.5" font-family="Helvetica,sans-Serif" font-size="10.00">stdio.h</text>
</g>
<!-- Node1&#45;&gt;Node3 -->
<g id="edge2" class="edge"><title>Node1&#45;&gt;Node3</title>
<path fill="none" stroke="midnightblue" d="M153.551,-56.083C148.986,-48.6127 142.332,-37.7244 136.707,-28.5199"/>
<polygon fill="midnightblue" stroke="midnightblue" points="139.549,-26.4588 131.348,-19.7511 133.576,-30.109 139.549,-26.4588"/>
</g>
<!-- Node4 -->
<g id="node4" class="node"><title>Node4</title>
<polygon fill="white" stroke="#bfbfbf" points="167.5,-0.5 167.5,-19.5 216.5,-19.5 216.5,-0.5 167.5,-0.5"/>
<text text-anchor="middle" x="192" y="-7.5" font-family="Helvetica,sans-Serif" font-size="10.00">stdlib.h</text>
</g>
<!-- Node1&#45;&gt;Node4 -->
<g id="edge3" class="edge"><title>Node1&#45;&gt;Node4</title>
<path fill="none" stroke="midnightblue" d="M164.449,-56.083C169.014,-48.6127 175.668,-37.7244 181.293,-28.5199"/>
<polygon fill="midnightblue" stroke="midnightblue" points="184.424,-30.109 186.652,-19.7511 178.451,-26.4588 184.424,-30.109"/>
</g>
<!-- Node5 -->
<g id="node5" class="node"><title>Node5</title>
<polygon fill="white" stroke="#bfbfbf" points="234.5,-0.5 234.5,-19.5 287.5,-19.5 287.5,-0.5 234.5,-0.5"/>
<text text-anchor="middle" x="261" y="-7.5" font-family="Helvetica,sans-Serif" font-size="10.00">unistd.h</text>
</g>
<!-- Node1&#45;&gt;Node5 -->
<g id="edge4" class="edge"><title>Node1&#45;&gt;Node5</title>
<path fill="none" stroke="midnightblue" d="M175.388,-56.324C191.671,-47.7034 216.867,-34.3643 235.716,-24.3855"/>
<polygon fill="midnightblue" stroke="midnightblue" points="237.452,-27.4267 244.653,-19.6545 234.177,-21.2402 237.452,-27.4267"/>
</g>
</g>
</svg>
